<?xml version="1.0" encoding="UTF-8" standalone="no"?>
<!-- Created with Inkscape (http://www.inkscape.org/) -->

<svg
   width="210mm"
   height="297mm"
   viewBox="0 0 210 297"
   version="1.1"
   id="svg1"
   inkscape:version="1.4.2 (ebf0e940, 2025-05-08)"
   sodipodi:docname="pipfactor.svg"
   xml:space="preserve"
   inkscape:export-filename="pipfactor(nobg).png"
   inkscape:export-xdpi="96"
   inkscape:export-ydpi="96"
   xmlns:inkscape="http://www.inkscape.org/namespaces/inkscape"
   xmlns:sodipodi="http://sodipodi.sourceforge.net/DTD/sodipodi-0.dtd"
   xmlns:xlink="http://www.w3.org/1999/xlink"
   xmlns="http://www.w3.org/2000/svg"
   xmlns:svg="http://www.w3.org/2000/svg"><sodipodi:namedview
     id="namedview1"
     pagecolor="#505050"
     bordercolor="#eeeeee"
     borderopacity="1"
     inkscape:showpageshadow="0"
     inkscape:pageopacity="0"
     inkscape:pagecheckerboard="0"
     inkscape:deskcolor="#505050"
     inkscape:document-units="mm"
     showguides="true"
     inkscape:zoom="0.49347689"
     inkscape:cx="403.26104"
     inkscape:cy="521.80762"
     inkscape:window-width="1296"
     inkscape:window-height="920"
     inkscape:window-x="221"
     inkscape:window-y="34"
     inkscape:window-maximized="0"
     inkscape:current-layer="layer1" /><defs
     id="defs1"><linearGradient
       id="linearGradient44"
       inkscape:collect="always"><stop
         style="stop-color:#fff4c1;stop-opacity:1;"
         offset="0"
         id="stop44" /><stop
         style="stop-color:#eab100;stop-opacity:0.67450982;"
         offset="1"
         id="stop45" /></linearGradient><linearGradient
       id="linearGradient38"
       inkscape:collect="always"><stop
         style="stop-color:#fff4c1;stop-opacity:1;"
         offset="0"
         id="stop38" /><stop
         style="stop-color:#fdbf00;stop-opacity:0.67450982;"
         offset="1"
         id="stop39" /></linearGradient><linearGradient
       id="linearGradient34"
       inkscape:collect="always"><stop
         style="stop-color:#000000;stop-opacity:1;"
         offset="0"
         id="stop34" /><stop
         style="stop-color:#3d3d3d;stop-opacity:0.7672956;"
         offset="1"
         id="stop35" /></linearGradient><linearGradient
       id="linearGradient32"
       inkscape:collect="always"><stop
         style="stop-color:#fff4c1;stop-opacity:1;"
         offset="0"
         id="stop32" /><stop
         style="stop-color:#fdbf00;stop-opacity:0.67295599;"
         offset="1"
         id="stop33" /></linearGradient><filter
       inkscape:collect="always"
       style="color-interpolation-filters:sRGB"
       id="filter6"
       x="-0.088701158"
       y="-0.088701158"
       width="1.1774023"
       height="1.1774023"><feGaussianBlur
         inkscape:collect="always"
         stdDeviation="2.6271054"
         id="feGaussianBlur6" /></filter><linearGradient
       inkscape:collect="always"
       xlink:href="#linearGradient32"
       id="linearGradient33"
       x1="82.808839"
       y1="120.46819"
       x2="121.41397"
       y2="168.18385"
       gradientUnits="userSpaceOnUse"
       gradientTransform="matrix(1.5429413,0,0,1.5429413,-44.383314,-58.585267)" /><linearGradient
       inkscape:collect="always"
       xlink:href="#linearGradient34"
       id="linearGradient35"
       x1="71.552826"
       y1="151.49278"
       x2="70.989349"
       y2="116.27189"
       gradientUnits="userSpaceOnUse"
       gradientTransform="matrix(1.5429413,0,0,1.5429413,-44.383314,-58.585267)" /><linearGradient
       inkscape:collect="always"
       xlink:href="#linearGradient38"
       id="linearGradient39"
       x1="67.491356"
       y1="123.41003"
       x2="67.739082"
       y2="184.29327"
       gradientUnits="userSpaceOnUse"
       gradientTransform="matrix(1.5429413,0,0,1.5429413,-44.383314,-58.585267)" /><linearGradient
       inkscape:collect="always"
       xlink:href="#linearGradient44"
       id="linearGradient45"
       x1="128.46245"
       y1="119.68026"
       x2="129.00542"
       y2="204.76056"
       gradientUnits="userSpaceOnUse"
       gradientTransform="matrix(1.4080468,0,0,1.4080468,-39.301091,-48.681043)" /><linearGradient
       inkscape:collect="always"
       xlink:href="#linearGradient34"
       id="linearGradient876"
       gradientUnits="userSpaceOnUse"
       x1="71.552826"
       y1="151.49278"
       x2="70.989349"
       y2="116.27189"
       gradientTransform="matrix(0.99600245,-0.21986226,0.27531054,0.79540488,3.9889469,77.329104)" /><linearGradient
       inkscape:collect="always"
       xlink:href="#linearGradient38"
       id="linearGradient877"
       gradientUnits="userSpaceOnUse"
       x1="67.491356"
       y1="123.41003"
       x2="67.739082"
       y2="184.29327"
       gradientTransform="matrix(0.99600245,-0.21986226,0.27531054,0.79540488,3.9889469,77.329104)" /><linearGradient
       inkscape:collect="always"
       xlink:href="#linearGradient34"
       id="linearGradient1"
       gradientUnits="userSpaceOnUse"
       x1="71.552826"
       y1="151.49278"
       x2="70.989349"
       y2="116.27189"
       gradientTransform="matrix(1.0225947,-0.2231004,0.28266104,0.80711964,1.5739049,76.570224)" /><linearGradient
       inkscape:collect="always"
       xlink:href="#linearGradient38"
       id="linearGradient2"
       gradientUnits="userSpaceOnUse"
       x1="67.491356"
       y1="123.41003"
       x2="67.739082"
       y2="184.29327"
       gradientTransform="matrix(1.0225947,-0.2231004,0.28266104,0.80711964,1.5739049,76.570224)" /></defs><g
     inkscape:label="Layer 1"
     inkscape:groupmode="layer"
     id="layer1"><circle
       style="display:inline;fill:none;stroke:#ffedb8;stroke-width:3.96875;stroke-dasharray:none;stroke-opacity:1;filter:url(#filter6)"
       id="circle6"
       cx="101.28127"
       cy="128.4381"
       r="46.726719"
       inkscape:label="circle shadow"
       transform="matrix(1.6806444,0,0,1.6806444,-64.007418,-68.695688)" /><circle
       style="fill:none;stroke:url(#linearGradient45);stroke-width:3.55672;stroke-dasharray:none"
       id="path4"
       inkscape:label="circle"
       cy="147.16307"
       cx="106.21039"
       r="78.530998" /></g><g
     inkscape:groupmode="layer"
     id="layer2"
     inkscape:label="Layer 2"><path
       id="rect18"
       style="fill:url(#linearGradient33);fill-opacity:1;stroke:none;stroke-width:6.0746;stroke-dasharray:none;stroke-opacity:1"
       inkscape:label="P"
       d="m 83.385877,89.179006 14.58879,18.160744 H 121.88999 V 89.179006 Z m 38.489663,-0.003 v 18.164674 c 12.96215,0.67826 23.05816,9.62903 23.05822,20.44257 -6e-5,10.81354 -10.09607,19.76429 -23.05822,20.44257 v 17.17729 c 24.11983,1.7e-4 43.67299,-17.0637 43.6732,-38.11322 2.1e-4,-21.04979 -19.55307,-38.114054 -43.6732,-38.113884 z" /><path
       id="path874"
       style="font-variation-settings:normal;opacity:1;vector-effect:none;fill:url(#linearGradient1);fill-opacity:1;stroke:url(#linearGradient2);stroke-width:0.816473;stroke-linecap:butt;stroke-linejoin:miter;stroke-miterlimit:4;stroke-dasharray:none;stroke-dashoffset:0;stroke-opacity:1;-inkscape-stroke:none;stop-color:#000000;stop-opacity:1"
       inkscape:transform-center-x="-0.066073614"
       inkscape:transform-center-y="-3.2621371"
       d="m 106.4896,128.33844 -14.316983,19.93424 5.71053,-0.035 v 38.44564 l 16.978503,-15.30533 0.0295,-23.24637 6.31171,-0.039 z"
       inkscape:label="small arrow"
       sodipodi:nodetypes="cccccccc" /><path
       id="path30"
       style="font-variation-settings:normal;opacity:0.718213;fill:url(#linearGradient876);fill-opacity:1;stroke:url(#linearGradient877);stroke-width:0.151166;stroke-linecap:butt;stroke-linejoin:miter;stroke-miterlimit:4;stroke-dasharray:none;stroke-dashoffset:0;stroke-opacity:1;stop-color:#000000;stop-opacity:1"
       inkscape:label="small arrow2"
       inkscape:transform-center-x="-0.064343406"
       inkscape:transform-center-y="-3.2131036"
       d="m 105.85717,128.95726 v 14.30092 c -0.14673,0.0531 -0.25939,0.30429 -0.25939,0.60662 0,0.33886 0.14226,0.61448 0.31763,0.61448 0.17416,0 0.31686,-0.27337 0.31686,-0.61448 0,-0.30108 -0.11298,-0.55395 -0.26016,-0.60662 v -14.30089 z m 1.03211,0.35754 v 9.06615 c -0.14675,0.0531 -0.25939,0.30393 -0.25939,0.60424 0,0.33886 0.14272,0.61685 0.31686,0.61685 0.17534,0 0.31763,-0.27571 0.31763,-0.61685 0,-0.30253 -0.11189,-0.55176 -0.25939,-0.60424 v -8.90899 z m -1.94849,0.7716 -0.11578,0.16346 -1e-5,5.56714 c -0.14812,0.052 -0.26015,0.30329 -0.26015,0.60662 0,0.33883 0.14164,0.61444 0.31686,0.61444 0.17417,0 0.31607,-0.27561 0.31607,-0.61444 0,-0.30176 -0.11031,-0.55203 -0.25705,-0.60583 z m 2.82761,0.42278 c -0.001,0.029 -0.004,0.0587 -0.004,0.0887 0,0.30032 0.11189,0.55231 0.2586,0.60583 v 3.81644 c -0.14673,0.0531 -0.2586,0.30347 -0.2586,0.60583 0,0.33885 0.14272,0.61682 0.31684,0.61682 0.17525,0 0.31609,-0.27797 0.31609,-0.61682 0,-0.30042 -0.11067,-0.5524 -0.25784,-0.60583 v -3.81644 c 0.0331,-0.0124 0.064,-0.0341 0.0925,-0.0645 l -0.1142,-0.15479 c -0.0124,0.005 -0.024,0.006 -0.0366,0.006 -0.1,0 -0.1826,-0.13948 -0.19881,-0.32608 z m -3.86051,1.03248 -0.11493,0.16186 v 8.98758 h 1.03211 v 8.0643 h 2.06887 c 0.0269,0.28666 0.15643,0.50601 0.3122,0.50601 0.17525,0 0.3153,-0.2757 0.3153,-0.61679 0,-0.34112 -0.14118,-0.61448 -0.3153,-0.61448 -0.15432,0 -0.28387,0.21706 -0.31141,0.5021 h -1.95393 v -8.06509 h -1.0329 z m -1.03443,1.45759 -0.11493,0.16187 v 10.8844 h 1.03443 v 8.22696 h 1.03211 v 3.65537 l 1.14704,-1e-5 2e-5,-2.02647 h 0.92181 c 0.0269,0.28667 0.15643,0.50602 0.3122,0.50603 0.17525,-1e-5 0.3153,-0.27572 0.3153,-0.61683 0,-0.34112 -0.14118,-0.61605 -0.3153,-0.61605 -0.15444,2e-5 -0.28403,0.21673 -0.31143,0.50369 h -1.03753 v 2.02571 h -0.91638 v -3.65696 h -1.0329 v -8.22539 h -1.03443 z m 6.95602,0.30959 v 3.47623 h -1.0321 v 6.25546 h -1.0321 v 6.46528 h 1.0321 v 4.8348 c -0.14827,0.0519 -0.26016,0.30389 -0.26016,0.60739 0,0.34113 0.14272,0.61604 0.31686,0.61604 0.17535,0 0.31685,-0.27719 0.31685,-0.61604 0,-0.30253 -0.11043,-0.55528 -0.2586,-0.60739 v -5.05876 h -1.03212 v -6.01816 l 1.03212,1e-5 v -6.25313 h 1.03288 v -3.54458 z m 0.79214,1.07573 c -0.0124,0.064 -0.0179,0.13314 -0.0179,0.20506 0,0.30168 0.11322,0.55466 0.26015,0.60661 v 2.35731 h 1.03211 v 1.74359 h -1.03444 v 2.49559 c -0.14643,0.0532 -0.25782,0.30356 -0.25782,0.60584 0,0.33886 0.14225,0.61681 0.3153,0.61681 0.17537,0 0.31685,-0.2757 0.31685,-0.61681 0,-0.30127 -0.1114,-0.55419 -0.25938,-0.60663 v -2.27085 l 1.03444,-10e-6 v -2.19384 h -1.03211 v -2.13178 c 0.0538,-0.0198 0.10241,-0.0658 0.14288,-0.13116 l -0.10035,-0.1367 c -0.0302,0.0346 -0.0656,0.055 -0.10326,0.055 -0.10922,0 -0.1996,-0.17602 -0.1996,-0.39289 0,-0.0234 10e-4,-0.0468 0.004,-0.0691 z m -8.78027,0.0684 -0.11493,0.16186 v 2.61032 h -0.92182 c -0.0268,-0.28659 -0.15644,-0.50526 -0.31218,-0.50526 -0.17305,0 -0.31453,0.27719 -0.31453,0.61605 0,0.33885 0.1404,0.61447 0.31453,0.61447 0.15444,0 0.28481,-0.21474 0.31218,-0.50133 h 1.03676 z m 6.24079,0.78027 c 0.1114,0 0.2019,0.17375 0.2019,0.39287 0,0.21914 -0.0881,0.39289 -0.2019,0.39289 -0.11153,0 -0.20193,-0.17602 -0.20193,-0.39289 0,-0.21687 0.0904,-0.39287 0.20193,-0.39287 z m -3.21048,0.79754 c 0.004,-3.4e-4 0.006,0 0.0109,0 0.10922,0 0.19958,0.17375 0.19958,0.3929 0,0.2146 -0.0904,0.39052 -0.19958,0.39052 -0.11371,0 -0.20192,-0.17141 -0.20191,-0.39052 -1e-5,-0.21229 0.0852,-0.3825 0.19182,-0.3929 z m -4.37927,0.91229 c 0.11031,0 0.20193,0.17599 0.20193,0.39287 0,0.21913 -0.0893,0.39131 -0.20193,0.39131 -0.11031,0 -0.19957,-0.17444 -0.19957,-0.39131 0,-0.21688 0.0893,-0.39287 0.19957,-0.39287 z m 9.39457,0.66474 c -0.17409,0 -0.31451,0.27719 -0.31451,0.61605 0,0.30028 0.1108,0.55301 0.25703,0.60659 v 8.9648 h 1.14706 v -2.55453 h 0.91948 v 6.27669 c -0.1475,0.0532 -0.25937,0.30643 -0.25937,0.60897 0,0.33885 0.14148,0.61682 0.31684,0.61682 0.17409,0 0.31452,-0.27571 0.31454,-0.61682 0,-0.30277 -0.11116,-0.55596 -0.25706,-0.60897 v -6.50062 h -1.14938 v 2.55294 l -0.91638,-1e-5 v -8.73927 c 0.14689,-0.0531 0.25939,-0.30423 0.25939,-0.60659 0,-0.34111 -0.14349,-0.61605 -0.31764,-0.61605 z m 0,0.22318 c 0.11152,0 0.20269,0.176 0.20269,0.39287 0,0.21687 -0.0912,0.39367 -0.20269,0.39367 -0.11031,0 -0.19959,-0.1768 -0.19959,-0.39367 0,-0.21687 0.0893,-0.39137 0.19959,-0.39287 z m -2.95032,0.76374 c 0.004,-3.1e-4 0.006,0 0.0109,0 0.11261,0 0.20268,0.17592 0.20268,0.39052 0,0.21688 -0.0901,0.39289 -0.20268,0.39289 -0.11153,0 -0.20191,-0.17375 -0.20191,-0.39289 0,-0.21227 0.0842,-0.38024 0.19181,-0.39052 z m 7.02439,0.32611 v 3.59093 h 1.03054 v 5.22217 c -0.0496,0.0177 -0.0949,0.0577 -0.13363,0.11481 l 0.3821,-0.004 c -0.0384,-0.0561 -0.0832,-0.0956 -0.13208,-0.1131 v -5.44534 h -1.03366 v -3.21302 z m -0.97619,0.29465 c -0.17418,0 -0.31686,0.27796 -0.31686,0.61682 0,0.30113 0.11201,0.55402 0.25938,0.60662 v 3.34893 h 1.03367 v 3.20905 c -0.14829,0.0524 -0.26173,0.30525 -0.26172,0.60662 -1e-5,0.33886 0.14426,0.61682 0.3184,0.61682 0.17407,0 0.31453,-0.27571 0.31453,-0.61682 0,-0.30322 -0.11031,-0.55451 -0.25783,-0.60662 v -3.43222 h -1.03056 v -3.12655 c 0.14596,-0.0542 0.25628,-0.30442 0.25628,-0.60583 0,-0.33886 -0.14134,-0.61682 -0.31529,-0.61682 z m -11.20018,0.0793 c -0.17304,0 -0.31452,0.27337 -0.31452,0.61447 0,0.30025 0.11006,0.55223 0.25628,0.60583 v 6.04883 h -0.92183 c -0.0272,-0.28728 -0.15672,-0.50504 -0.3122,-0.50369 -0.17303,0 -0.31451,0.27572 -0.31451,0.61683 0,0.33886 0.1404,0.61682 0.31451,0.61682 0.15474,0 0.28516,-0.2194 0.3122,-0.50604 h 0.92183 v 1.75698 c -0.1455,0.0533 -0.25628,0.30378 -0.25628,0.60583 0,0.33886 0.14041,0.61445 0.31452,0.61447 0.17415,0 0.31686,-0.27564 0.31686,-0.61447 0,-0.30307 -0.11298,-0.55514 -0.26017,-0.60663 v -1.75618 h 0.91717 v 7.61956 h 1.03444 v 3.69938 c -0.14766,0.0532 -0.26016,0.3061 -0.26016,0.60662 -10e-6,0.33883 0.14318,0.61682 0.3184,0.61682 0.17305,0 0.31453,-0.27799 0.31453,-0.61682 0,-0.30285 -0.11165,-0.55563 -0.25784,-0.6074 v -3.92176 h -1.03443 v -7.03416 c 0.0549,0.0896 0.12605,0.1438 0.20346,0.1438 0.17415,0 0.31686,-0.27797 0.31686,-0.61683 0,-0.3411 -0.14272,-0.616 -0.31686,-0.61447 -0.0771,0 -0.14827,0.0537 -0.20346,0.14304 v -0.60033 c 0.14735,-0.0521 0.26015,-0.30315 0.26017,-0.60426 0,-0.34111 -0.14272,-0.61682 -0.31686,-0.61682 -0.17304,0 -0.31452,0.27571 -0.31452,0.61683 0,0.3 0.11079,0.55077 0.25627,0.60425 v 0.95864 h -0.91717 v -6.04803 c 0.14735,-0.0524 0.26017,-0.30355 0.26017,-0.60663 0,-0.33883 -0.14272,-0.61445 -0.31686,-0.61445 z m -3.096313,0.0857 c -0.17415,0 -0.31686,0.27337 -0.31686,0.61448 0,0.30032 0.11189,0.5511 0.25862,0.60424 v 4.92361 h 1.0321 v 3.94689 h -1.0321 v 4.12684 h -0.83641 v 0.22392 h 0.95134 v -4.12525 h 1.0321 0.917183 v 4.12525 h 1.0321 v 4.63996 h 1.03443 v 3.99324 c -0.14673,0.0536 -0.2586,0.30555 -0.2586,0.60583 0,0.34113 0.14272,0.61683 0.31686,0.61684 0.17302,-1e-5 0.31452,-0.27572 0.31452,-0.61684 0,-0.30282 -0.11176,-0.55484 -0.25784,-0.60661 v -4.21641 l -1.03444,-1e-5 v -4.63993 l -1.0321,1e-5 v -4.12684 h -1.031333 v -3.94689 h 1.031333 v -4.92129 c 0.14735,-0.0526 0.26017,-0.3055 0.26017,-0.60659 0,-0.34111 -0.14273,-0.61599 -0.31686,-0.61448 -0.17415,0 -0.31685,0.27337 -0.31685,0.61448 0,0.3005 0.11104,0.55328 0.25861,0.60659 v 4.69731 h -1.032113 v 7.9e-4 h -0.91717 v -4.69967 c 0.14735,-0.0524 0.26016,-0.30395 0.26016,-0.60502 0,-0.34111 -0.14272,-0.61599 -0.31685,-0.61448 z m 14.297253,0.0589 c 0.11031,1e-5 0.1996,0.17602 0.1996,0.39287 0,0.21688 -0.0892,0.39369 -0.1996,0.39369 -0.11262,-2e-5 -0.20191,-0.17454 -0.20191,-0.39369 0,-0.21685 0.0893,-0.39287 0.20191,-0.39287 z m -11.21259,0.0793 c 0.004,-3.4e-4 0.007,0 0.0109,0 0.11249,0 0.20191,0.17141 0.20191,0.39052 0,0.21687 -0.0916,0.3929 -0.20191,0.3929 -0.11031,0 -0.20037,-0.17603 -0.20037,-0.3929 0,-0.2079 0.084,-0.37999 0.18949,-0.39052 z m -3.096313,0.0857 c 0.004,-2.9e-4 0.007,-6e-5 0.0109,0 0.11031,0 0.20191,0.17591 0.20191,0.39051 0,0.2146 -0.0904,0.39131 -0.20191,0.39131 -0.11383,0 -0.20192,-0.17219 -0.20192,-0.39131 0,-0.21447 0.0824,-0.38168 0.19105,-0.39051 z m 2.064223,0 c 0.004,-3.2e-4 0.007,-6e-5 0.0109,0 0.11262,0 0.20191,0.17138 0.20191,0.39051 0,0.21686 -0.0917,0.39288 -0.20191,0.39288 -0.11152,-0.001 -0.20193,-0.17828 -0.20193,-0.39288 0,-0.21008 0.0844,-0.38141 0.19105,-0.39051 z m -2.770163,0.3017 -0.14441,0.20274 c -6e-5,2.5e-4 7e-5,5.4e-4 0,7.9e-4 -0.0283,0.091 -0.0746,0.15834 -0.129,0.18152 l -0.1421,0.20036 c 0.0138,0.01 0.0287,0.0166 0.0435,0.0221 v 6.05117 h -0.91716 v -0.95942 c 0.14613,-0.0526 0.25706,-0.30344 0.25706,-0.60426 0,-0.34111 -0.14153,-0.61682 -0.31452,-0.61682 -0.17415,0 -0.31686,0.27571 -0.31686,0.61683 0,0.30052 0.11189,0.55137 0.25939,0.60425 v 0.59562 c -0.0548,-0.0882 -0.12509,-0.14132 -0.20191,-0.14072 -0.17415,0 -0.31764,0.27573 -0.31764,0.61685 0,0.33884 0.14233,0.61682 0.31764,0.61682 0.0765,0 0.14695,-0.0532 0.20191,-0.14226 v 0.8125 l 0.11492,-8e-4 v -1.17551 h 0.91716 v 1.17002 l 0.11493,-7.9e-4 v -1.16923 h 0.92183 c 0.0268,0.28663 0.15566,0.50603 0.31143,0.50603 0.17302,0 0.31529,-0.27797 0.31529,-0.61682 0,-0.34111 -0.14117,-0.61835 -0.31529,-0.61683 -0.15446,0 -0.28404,0.21747 -0.31143,0.50448 h -0.92183 v -6.05119 c 0.14612,-0.0521 0.25705,-0.30144 0.25705,-0.60426 0,-10e-4 0,-10e-4 0,-0.004 z m -1.28915,1.81592 -0.11493,0.16186 v 1.93771 l -1.03443,-1e-5 v 4.14884 l 0.11493,-7.9e-4 v -3.92412 h 1.03443 z m 14.236683,0.28366 c 0.11261,0 0.20268,0.17601 0.20268,0.39288 0,0.21686 -0.0901,0.39368 -0.20268,0.39368 -0.10922,0 -0.19959,-0.17682 -0.19959,-0.39368 0,-0.21685 0.0916,-0.39288 0.19959,-0.39288 z m 5.99382,0.92406 v 0.11079 h -1.0321 v 4.80181 l 0.11334,-7.9e-4 v -4.57786 h 1.03367 v -0.17758 z m -11.00758,0.54218 c 0.004,-3.4e-4 0.007,0 0.0109,0 0.11031,0 0.20192,0.17599 0.20192,0.39287 0,0.21462 -0.0916,0.39054 -0.20192,0.39054 -0.11371,-2e-5 -0.20268,-0.1714 -0.20268,-0.39054 0,-0.2101 0.0842,-0.38234 0.19182,-0.39287 z m 2.94955,0.0473 c -0.17535,0 -0.31686,0.27571 -0.31686,0.61682 0,0.33886 0.1415,0.61446 0.31686,0.61446 0.17528,0 0.31452,-0.27337 0.31452,-0.61446 0,-0.34111 -0.1404,-0.61684 -0.31452,-0.61682 z m 8.11705,-2e-5 c -0.17529,2e-5 -0.3184,0.27573 -0.3184,0.61684 0,0.33885 0.14303,0.61446 0.3184,0.61446 0.17409,0 0.31453,-0.27334 0.31453,-0.61446 0,-0.34112 -0.14041,-0.61682 -0.31453,-0.61684 z m -8.12716,0.22395 c 0.004,-3.4e-4 0.006,0 0.0109,0 0.1114,0 0.1996,0.17601 0.1996,0.39289 0,0.21461 -0.0881,0.39051 -0.1996,0.39051 -0.1125,0 -0.20268,-0.1714 -0.20268,-0.39051 0,-0.2101 0.0869,-0.38234 0.19259,-0.39289 z m 8.11707,0 c 0.004,-3.4e-4 0.006,0 0.0109,0 0.11153,0 0.19881,0.176 0.19881,0.39289 0,0.21459 -0.0874,0.39051 -0.19881,0.39051 -0.11371,3e-5 -0.20346,-0.1714 -0.20346,-0.39051 0,-0.2101 0.0876,-0.38234 0.19337,-0.39289 z m 0.98241,0.58775 v 3.46444 h 1.14702 v -1.90626 l -0.11493,-0.15638 v 1.83711 h -0.9164 v -3.08174 z m -21.330963,0.27739 c 0.004,-3.4e-4 0.007,-1e-5 0.0109,-1e-5 0.10909,1e-5 0.19959,0.17375 0.19959,0.39288 0,0.21462 -0.0905,0.39053 -0.19959,0.39053 -0.1114,0 -0.20192,-0.17591 -0.20192,-0.39053 0,-0.21228 0.0825,-0.38247 0.19105,-0.39287 z m 6.194193,0 c 0.004,-3.5e-4 0.006,-1e-5 0.01,0 0.11031,-1e-5 0.20191,0.17374 0.20191,0.39287 0,0.21914 -0.0881,0.39053 -0.20191,0.39053 -0.11031,0 -0.19959,-0.17591 -0.19959,-0.39053 0,-0.21011 0.0829,-0.38234 0.18948,-0.39287 z m -8.191613,0.0251 -0.11493,0.16185 v 3.18158 l 0.11493,-7.8e-4 z m 14.182313,0.11942 v 3.05978 c -0.14812,0.0522 -0.26016,0.30526 -0.26016,0.6066 0,0.33887 0.14164,0.61448 0.31686,0.61448 0.17528,0 0.31452,-0.27337 0.31452,-0.61446 0,-0.3022 -0.11007,-0.55332 -0.25627,-0.60662 v -3.05976 z m 8.11473,2e-5 v 3.05818 c -0.0164,0.006 -0.0327,0.0139 -0.0481,0.0252 l 0.21201,-0.001 c -0.0154,-0.0109 -0.0318,-0.0185 -0.0481,-0.0244 v -3.05742 z m -20.558223,1.53145 c 0.004,-2.9e-4 0.007,-3e-5 0.0109,0 0.11031,0 0.20191,0.17374 0.20191,0.39289 0,0.21685 -0.0916,0.39366 -0.20191,0.39366 -0.1114,0 -0.2027,-0.17681 -0.2027,-0.39366 0,-0.2123 0.0853,-0.38377 0.19183,-0.39289 z m 2.58297,0 c 0.004,-2.9e-4 0.006,-3e-5 0.0109,0 0.10921,-1e-5 0.20036,0.17374 0.20036,0.39289 0,0.21685 -0.0914,0.39366 -0.20036,0.39366 -0.11153,0 -0.20191,-0.17681 -0.20191,-0.39366 0,-0.2123 0.0852,-0.38376 0.19181,-0.39289 z m 1.545443,0 c 0.004,-3e-4 0.006,-3e-5 0.0109,-1e-5 0.11031,1e-5 0.20192,0.17376 0.20192,0.3929 0,0.21685 -0.0916,0.39136 -0.20192,0.39287 -0.11031,0 -0.19958,-0.17602 -0.19958,-0.39288 0,-0.21229 0.084,-0.38376 0.1895,-0.39288 z m 2.58297,0.004 c 0.004,-2.7e-4 0.006,-4e-5 0.0109,2e-5 0.11261,-2e-5 0.20193,0.16914 0.20193,0.39052 0,0.21685 -0.0916,0.39287 -0.20193,0.39287 -0.11153,0 -0.20191,-0.17602 -0.20191,-0.39287 0,-0.21009 0.0852,-0.38142 0.19182,-0.39054 z m 16.94238,0.84864 v 0.68126 l 0.11493,-7.9e-4 v -0.52488 z m -5.99148,0.0754 c 0.11031,0 0.20267,0.17604 0.20267,0.3929 0,0.21688 -0.0909,0.39289 -0.20113,0.39289 -0.11152,1e-5 -0.20193,-0.17601 -0.20193,-0.39289 0,-0.21686 0.0899,-0.3929 0.20039,-0.3929 z m -5.1722,0.81565 c 0.004,-3.4e-4 0.006,-1e-5 0.0109,0 0.1114,0 0.1996,0.17599 0.1996,0.39288 0,0.2146 -0.0881,0.39052 -0.1996,0.39052 -0.1125,0 -0.20269,-0.16913 -0.20268,-0.39052 0,-0.21229 0.0869,-0.38248 0.19259,-0.39288 z m -1.63783,0.22784 c 0.11031,3e-5 0.20035,0.17595 0.20035,0.39056 0,0.21686 -0.0901,0.39366 -0.20035,0.39366 -0.11153,0 -0.20194,-0.17455 -0.20194,-0.39366 0,-0.22139 0.0904,-0.39056 0.20194,-0.39056 z m -9.412443,0.34104 v 0.27266 c 0.0377,0.0711 0.0615,0.17102 0.0615,0.28288 0,0.10958 -0.0238,0.20931 -0.0615,0.28053 v 0.27265 c 0.10472,-0.0999 0.17706,-0.31053 0.17706,-0.55318 0,-0.24423 -0.0724,-0.45569 -0.17706,-0.55554 z m 14.933293,0.13594 c -0.17532,0 -0.31839,0.27797 -0.3184,0.61684 1e-5,0.33886 0.14427,0.61601 0.3184,0.61603 0.15446,0 0.28404,-0.21669 0.31141,-0.50368 h 1.31869 l 7.7e-4,-0.22552 h -1.31946 c -0.0272,-0.28698 -0.15594,-0.50367 -0.31141,-0.50367 z m -10.95398,0.0267 c 0.004,-2.9e-4 0.007,-5e-5 0.0109,0 0.11262,0 0.20192,0.17149 0.20192,0.39287 -1e-5,0.21461 -0.0916,0.39131 -0.20192,0.39131 -0.11031,0 -0.20037,-0.17668 -0.20037,-0.39131 0,-0.21227 0.084,-0.38376 0.18949,-0.39287 z m 10.95244,0.19643 c 0.11153,0 0.20191,0.1768 0.20191,0.39368 0,0.21685 -0.0904,0.39288 -0.20191,0.39288 -0.11262,0 -0.20193,-0.17603 -0.20193,-0.39288 0,-0.21688 0.0895,-0.39368 0.20193,-0.39368 z m 1.29226,0.86513 c -0.17533,1e-5 -0.31841,0.27797 -0.31841,0.61683 1e-5,0.30118 0.11419,0.55406 0.26173,0.60659 v 0.81721 h -1.03367 v 4.83953 c -0.1472,0.0526 -0.25938,0.3055 -0.25938,0.60661 0,0.33885 0.14272,0.61682 0.31686,0.61682 0.17416,0 0.31529,-0.27572 0.31529,-0.61684 0,-0.30143 -0.11043,-0.55166 -0.25628,-0.60581 v -4.61716 h 1.03056 v -1.04036 c 0.14689,-0.0525 0.25783,-0.3036 0.25783,-0.60659 0,-0.34112 -0.13933,-0.61683 -0.31453,-0.61683 z m -9.39378,0.21294 c -0.17531,0 -0.31764,0.27492 -0.31764,0.61603 0,0.33886 0.1435,0.61684 0.31764,0.61684 0.15445,0 0.28482,-0.21664 0.31219,-0.50368 h 1.95859 c 0.0273,0.28556 0.15606,0.50368 0.31143,0.50368 0.17523,0 0.31529,-0.27571 0.31529,-0.61684 0,-0.34111 -0.14118,-0.61444 -0.31529,-0.61444 -0.15483,0 -0.28525,0.21601 -0.31221,0.50366 h -1.95781 c -0.0267,-0.28808 -0.15634,-0.50525 -0.31219,-0.50525 z m 9.39378,0.0109 c 0.11031,0 0.20113,0.17599 0.20113,0.39289 0,0.21684 -0.0909,0.39366 -0.20113,0.39366 -0.11152,0 -0.20193,-0.17682 -0.20193,-0.39366 0,-0.21915 0.0904,-0.39442 0.20193,-0.39289 z m -9.39457,0.21214 c 0.11031,0 0.20192,0.17603 0.20192,0.39289 0,0.21686 -0.0916,0.39366 -0.20192,0.39366 -0.11153,0 -0.20191,-0.17681 -0.20191,-0.39366 0,-0.21686 0.0904,-0.39289 0.20191,-0.39289 z m 2.583,0.004 c 0.11031,0 0.20035,0.17593 0.20035,0.39052 0,0.21688 -0.0901,0.39366 -0.20035,0.39366 -0.11153,3e-5 -0.20194,-0.17678 -0.20194,-0.39366 0,-0.21911 0.0904,-0.39052 0.20194,-0.39052 z m 3.71527,0.23024 c -0.17533,0 -0.31765,0.27573 -0.31765,0.61683 0,0.30028 0.11322,0.55305 0.26016,0.6066 v 3.99326 h -1.03444 v 4.63994 h -1.0321 v 4.12682 l -1.0321,2e-5 v 4.39632 h 1.0321 v 4.69496 c -0.14812,0.0527 -0.26016,0.30769 -0.26016,0.60898 0,0.34109 0.14272,0.61445 0.31686,0.61445 0.17535,0 0.31685,-0.27334 0.31685,-0.61445 0,-0.30277 -0.11031,-0.55594 -0.2586,-0.60898 v -4.92124 h -1.03212 v -3.94846 h 1.03212 v -4.12291 h 1.03288 v -4.64231 h 1.03366 v -4.2164 c 0.14689,-0.0527 0.25705,-0.30556 0.25705,-0.6066 0,-0.33885 -0.13933,-0.61683 -0.31451,-0.61683 z m -11.257643,0.17443 c -0.17536,0 -0.31686,0.27326 -0.31686,0.61212 0,0.30254 0.11104,0.55371 0.25861,0.60661 v 3.81331 c -0.14751,0.0532 -0.25861,0.30563 -0.25861,0.60817 0,0.34111 0.14164,0.61683 0.31684,0.61683 0.1742,0 0.31532,-0.27572 0.31532,-0.61682 0,-0.30303 -0.11153,-0.55544 -0.25861,-0.60818 v -3.81331 c 0.14703,-0.0524 0.25861,-0.30358 0.25861,-0.60661 0,-0.33661 -0.14118,-0.61212 -0.3153,-0.61212 z m 11.256853,0.0496 c 0.11031,0 0.20035,0.17376 0.20035,0.39289 0,0.21687 -0.0899,0.39367 -0.20035,0.39367 -0.11152,0 -0.20192,-0.1768 -0.20192,-0.39367 0,-0.21686 0.0916,-0.39289 0.20192,-0.39289 z m -11.256873,0.17602 c 0.11019,0 0.20037,0.17661 0.20037,0.38894 0,0.21915 -0.0878,0.39288 -0.20037,0.3929 -0.11262,0 -0.20191,-0.17827 -0.20191,-0.3929 0,-0.21233 0.0893,-0.38894 0.20191,-0.38894 z m 12.279663,0.84548 c 0.004,-3.1e-4 0.006,-5e-5 0.0109,0 0.1091,-1e-5 0.19959,0.17602 0.19959,0.39288 0,0.21687 -0.0904,0.3929 -0.19959,0.3929 -0.11274,0 -0.2027,-0.17603 -0.2027,-0.3929 0,-0.21008 0.0849,-0.38363 0.19261,-0.39288 z m 2.01762,1.08828 v 3.65381 c -0.14829,0.0524 -0.26173,0.30521 -0.26173,0.60661 0,0.33884 0.14426,0.61683 0.31841,0.6168 0.17535,0 0.31686,-0.27567 0.31686,-0.6168 0,-0.30325 -0.11213,-0.55454 -0.26016,-0.60661 v -3.42987 h 0.27878 v -0.22393 z m -6.75489,0.57833 c 0.11031,0 0.20034,0.17591 0.20034,0.39052 1e-5,0.21686 -0.0901,0.39366 -0.20034,0.39366 -0.11153,0 -0.20194,-0.17679 -0.20194,-0.39366 0,-0.21912 0.0904,-0.39052 0.20194,-0.39052 z m 1.64794,1.15427 c 0.1125,0 0.20347,0.17456 0.20347,0.39368 0,0.21686 -0.0909,0.39289 -0.20347,0.39289 -0.11152,0 -0.20192,-0.17603 -0.20192,-0.39289 0,-0.21912 0.0904,-0.39521 0.20192,-0.39368 z m 3.09941,0.28053 c -0.17534,0 -0.31684,0.27797 -0.31684,0.61683 0,0.30057 0.11188,0.55259 0.25937,0.60583 v 3.69937 h -1.03443 v 7.61955 h -0.91638 v -1.75225 c 0.14673,-0.0538 0.25939,-0.30787 0.25939,-0.60818 -1e-5,-0.34337 -0.14349,-0.61599 -0.31764,-0.61447 -0.17409,0 -0.31451,0.27334 -0.31451,0.61447 0,0.30229 0.1108,0.55539 0.25705,0.60896 l -2e-5,1.75147 h -0.9226 c -0.0268,-0.28658 -0.15566,-0.50602 -0.31141,-0.50602 -0.17409,0 -0.31452,0.27797 -0.31452,0.61683 0,0.34336 0.14148,0.61681 0.31452,0.61681 0.15512,0 0.2838,-0.21541 0.31141,-0.50131 h 0.9226 l 2e-5,6.0441 c -0.14626,0.0539 -0.25705,0.30868 -0.25705,0.60897 0,0.33886 0.1404,0.61447 0.31451,0.61447 0.005,0 0.007,-5.4e-4 0.0124,-7.9e-4 l 0.22755,-0.21059 c 1e-4,-2.2e-4 -8e-5,-5.7e-4 0,-7.9e-4 0.0485,-0.10788 0.0784,-0.24846 0.0784,-0.4023 0,-0.30233 -0.11262,-0.55542 -0.25938,-0.60897 v -6.04409 h 0.91638 v 0.9547 c -0.14658,0.0536 -0.25782,0.30626 -0.25782,0.6066 0,0.34111 0.14226,0.61603 0.31529,0.61603 0.17537,0 0.31685,-0.27492 0.31685,-0.61603 0,-0.30323 -0.1114,-0.55528 -0.25938,-0.60739 v -0.59247 c 0.0553,0.0878 0.12559,0.1398 0.20191,0.1398 0.17536,0 0.31687,-0.27573 0.31687,-0.61682 0,-0.33885 -0.14164,-0.61682 -0.31687,-0.61682 -0.0765,0 -0.14689,0.0536 -0.20191,0.14148 v -7.03103 h 1.03442 v -3.92253 c 0.14689,-0.0525 0.25707,-0.30364 0.25708,-0.60661 0,-0.3411 -0.14164,-0.61682 -0.31455,-0.61682 z m 0,0.22316 c 0.1091,1e-5 0.1996,0.17679 0.1996,0.39367 0,0.21688 -0.0904,0.39289 -0.1996,0.39289 -0.11274,0 -0.20268,-0.17601 -0.20268,-0.39289 0,-0.21688 0.0901,-0.39367 0.20268,-0.39367 z m -4.18666,0.5241 c -0.17536,0 -0.31801,0.2755 -0.31686,0.61212 0,0.30115 0.11274,0.55484 0.26017,0.60739 v 3.81725 c -0.14843,0.0519 -0.2612,0.3032 -0.26017,0.6066 0,0.33886 0.14273,0.61447 0.31686,0.61447 0.17641,0 0.31686,-0.27561 0.31686,-0.61447 0,-0.30242 -0.11128,-0.5536 -0.25861,-0.60661 v -3.81803 c 0.14812,-0.0527 0.25861,-0.30397 0.25861,-0.6066 0,-0.33662 -0.14164,-0.61212 -0.31686,-0.61212 z m -0.0109,0.2263 c 0.004,-3.4e-4 0.007,0 0.0109,0 0.1114,0 0.20193,0.17584 0.20191,0.38816 2e-5,0.21914 -0.0881,0.39367 -0.20191,0.39368 -0.1114,0 -0.20191,-0.17679 -0.20191,-0.39367 0,-0.2057 0.0844,-0.37763 0.19104,-0.38817 z m -8.092203,0.10132 c 0.11019,0 0.20037,0.17603 0.20037,0.39289 0,0.21913 -0.0878,0.39367 -0.20037,0.39367 -0.11262,0 -0.20191,-0.1768 -0.20191,-0.39367 0,-0.21686 0.0893,-0.39289 0.20191,-0.39289 z m 5.218003,0.33239 c -0.17535,0 -0.31686,0.27797 -0.31686,0.61682 0,0.30127 0.11213,0.55417 0.26017,0.60661 v 4.84188 l 1.0321,2e-5 v 0.81246 c -0.14673,0.0541 -0.25939,0.30793 -0.25939,0.6082 0,0.33885 0.14226,0.61682 0.31764,0.61682 0.17302,0 0.31453,-0.27797 0.31451,-0.61683 2e-5,-0.30085 -0.11176,-0.55409 -0.25783,-0.60819 v -1.03876 l -1.03133,-3e-5 v -4.61634 c 0.14611,-0.0541 0.25707,-0.30423 0.25707,-0.60583 0,-0.34111 -0.14072,-0.61835 -0.31608,-0.61683 z m 0,0.22317 c 0.11018,0 0.19958,0.17678 0.19958,0.39366 0,0.21688 -0.0893,0.39289 -0.19958,0.39289 -0.11031,0 -0.20191,-0.17601 -0.20191,-0.39289 0,-0.21688 0.0929,-0.39366 0.20191,-0.39366 z m 1.03366,-1e-5 c -0.17415,0 -0.31764,0.27798 -0.31764,0.61683 0,0.30052 0.11189,0.55331 0.25939,0.6066 v 3.65382 h 1.03211 v 3.36149 h -1.95317 c -0.0272,-0.28699 -0.15673,-0.50367 -0.31218,-0.50367 -0.17531,0 -0.31763,0.27796 -0.31763,0.61682 0,0.33886 0.14349,0.61683 0.31763,0.61683 0.15432,-1e-5 0.2839,-0.21815 0.31141,-0.50369 h 2.06887 v -3.81095 h -1.03211 v -3.43065 c 0.14735,-0.0524 0.26015,-0.30352 0.26018,-0.6066 -3e-5,-0.34111 -0.14272,-0.61682 -0.31686,-0.61683 z m 0,0.22394 c 0.11031,0 0.20191,0.17601 0.20191,0.39289 0,0.21686 -0.0916,0.39287 -0.20191,0.39287 -0.11031,0 -0.2027,-0.17601 -0.2027,-0.39287 0,-0.21687 0.0912,-0.39289 0.2027,-0.39289 z m 8.10229,0 c 0.11262,0 0.20346,0.17602 0.20346,0.39289 0,0.21686 -0.0909,0.39366 -0.20346,0.39366 -0.11152,0 -0.20192,-0.1768 -0.20192,-0.39366 0,-0.21687 0.0904,-0.39289 0.20192,-0.39289 z m -1.0422,0.22394 c 0.004,-3.3e-4 0.006,1e-5 0.0109,0 0.11031,1e-5 0.19959,0.17603 0.19959,0.39287 0,0.21689 -0.0893,0.3929 -0.19959,0.3929 -0.11262,0 -0.20191,-0.17601 -0.20191,-0.3929 0,-0.21007 0.0841,-0.38234 0.19181,-0.39287 z m -0.0481,1.32324 v 3.65536 h -1.03133 v 8.22774 h -1.03445 v 3.85733 l 0.11493,-0.10691 v -3.52729 h 1.03444 v -8.2246 h 1.03288 v -3.65772 h 0.91715 v 2.02646 h 0.38287 v -0.22628 h -0.26946 v -2.02413 z m -9.08703,0.0841 c 0.004,-3.2e-4 0.007,2e-5 0.0109,0 0.11031,0 0.1996,0.17379 0.1996,0.3929 0,0.21913 -0.0893,0.39288 -0.1996,0.39288 -0.11031,0 -0.20191,-0.17375 -0.20192,-0.3929 10e-6,-0.21226 0.0844,-0.38247 0.19105,-0.39288 z m -5.151973,0.27975 c -0.17416,0 -0.31686,0.27796 -0.31686,0.61682 0,0.30234 0.11189,0.55349 0.25861,0.60662 v 5.07682 l 1.0321,-1e-5 v 6.0386 h -1.03212 l 2e-5,6.27825 h -0.83641 v 0.22318 h 0.95134 v -6.27513 h 1.0321 v -0.0138 h 0.917163 l 10e-6,6.26411 h 1.03211 v 5.03045 l 0.11493,-0.10679 v -5.14677 h -1.03211 v -6.26882 h -1.031333 v -6.03153 h 1.031333 v -5.06817 c 0.14735,-0.0522 0.26016,-0.30351 0.26016,-0.60661 0,-0.33886 -0.14272,-0.61683 -0.31686,-0.61682 -0.17414,0 -0.31685,0.27797 -0.31685,0.61682 0,0.3025 0.11116,0.55368 0.2586,0.60663 v 4.84419 l -1.032103,3e-5 v 0.007 h -0.91717 l 1e-5,-4.85129 c 0.14719,-0.0522 0.26015,-0.30357 0.26015,-0.60663 0,-0.33884 -0.14272,-0.61682 -0.31685,-0.61682 z m -0.0124,0.22395 c 0.004,-3.6e-4 0.007,0 0.0109,0 0.11031,0 0.2019,0.17601 0.2019,0.39287 0,0.21912 -0.0904,0.39289 -0.2019,0.39289 -0.11152,0 -0.20193,-0.17377 -0.20193,-0.39289 0,-0.20791 0.0844,-0.38221 0.19105,-0.39287 z m 2.064213,0 c 0.004,-3.4e-4 0.007,0 0.0109,0 0.11031,0 0.20191,0.17601 0.20191,0.39287 0,0.21912 -0.0916,0.39289 -0.20192,0.39289 -0.11153,0 -0.20191,-0.17377 -0.20191,-0.39289 0,-0.20791 0.0844,-0.38221 0.19103,-0.39287 z m 7.01504,2.00603 c 0.004,-3.4e-4 0.007,0 0.0109,0 0.1114,0 0.20191,0.17613 0.20191,0.39526 0,0.21911 -0.0881,0.39289 -0.20191,0.39289 -0.1114,0 -0.20192,-0.17603 -0.20191,-0.39289 -1e-5,-0.21227 0.0844,-0.3847 0.19103,-0.39526 z m -3.90475,0.59169 c -0.17531,0 -0.31842,0.27572 -0.31842,0.61685 0,0.30253 0.1125,0.55485 0.26018,0.60817 v 6.27747 h -0.9195 v -2.55532 h -1.14704 v 8.96322 c -0.1455,0.0543 -0.25629,0.30816 -0.25629,0.6082 0,0.33883 0.14042,0.61681 0.31453,0.61681 0.17414,0 0.31685,-0.27798 0.31685,-0.61683 0,-0.30309 -0.11274,-0.5563 -0.26016,-0.60897 v -8.73612 h 0.91717 v 2.55216 h 1.14938 v -6.50062 c 0.14611,-0.0533 0.25781,-0.30735 0.25781,-0.60817 0,-0.33887 -0.14164,-0.61685 -0.31451,-0.61685 z m -0.0109,0.22395 c 0.004,-3.8e-4 0.007,5e-5 0.0109,10e-6 0.11031,-10e-6 0.19959,0.17374 0.19959,0.39286 0,0.21915 -0.0893,0.39289 -0.1996,0.39289 -0.11031,1e-5 -0.20191,-0.17374 -0.20191,-0.39289 0,-0.21008 0.0844,-0.38103 0.19105,-0.39287 z m -1.02124,1.02071 c 0.11031,0 0.19959,0.17602 0.19959,0.39289 0,0.21911 -0.0881,0.39287 -0.19959,0.39287 -0.11031,0 -0.20191,-0.17376 -0.20191,-0.39287 0,-0.21687 0.0904,-0.39289 0.20191,-0.39289 z m 9.90789,0.23023 c -0.17533,0 -0.3184,0.28033 -0.31842,0.61918 2e-5,0.34112 0.14427,0.61447 0.31842,0.61446 0.15443,1e-5 0.28402,-0.21476 0.3114,-0.50132 h 1.3016 v -0.22393 l -1.3016,-1e-5 c -0.0267,-0.28854 -0.15552,-0.50838 -0.3114,-0.50838 z m -0.001,0.2263 c 0.11153,0 0.20191,0.17601 0.20191,0.39288 0,0.21686 -0.0904,0.39288 -0.20191,0.39288 -0.11371,0 -0.20193,-0.1715 -0.20193,-0.39288 0,-0.21687 0.0895,-0.39288 0.20193,-0.39288 z m -6.81003,0.21215 c 0.11031,2e-5 0.19959,0.17375 0.19959,0.3929 0,0.21909 -0.0893,0.39288 -0.19959,0.39288 -0.11031,-2e-5 -0.20269,-0.17377 -0.2027,-0.3929 0,-0.21686 0.0912,-0.39135 0.2027,-0.39288 z m -1.30236,1.08908 c 0.004,-3.3e-4 0.006,0 0.01,0 0.11031,0 0.20193,0.17375 0.20193,0.39287 0,0.21913 -0.0916,0.39289 -0.20193,0.39289 -0.11031,0 -0.20191,-0.17376 -0.20191,-0.39289 0,-0.21227 0.0861,-0.38246 0.19182,-0.39287 z m 5.2739,0.19878 c 0.11261,0 0.2027,0.17151 0.2027,0.39289 0,0.21914 -0.0901,0.39289 -0.2027,0.39289 -0.11031,0 -0.19959,-0.17604 -0.19959,-0.39289 0,-0.21685 0.0893,-0.39289 0.19959,-0.39289 z m -11.197043,0.39525 c -0.17416,0 -0.31686,0.27572 -0.31686,0.61682 0,0.33886 0.14272,0.61212 0.31686,0.61212 0.17302,0 0.3145,-0.27326 0.3145,-0.61212 0,-0.3411 -0.14148,-0.61682 -0.3145,-0.61682 z m 0,1.22894 h -0.0598 v 3.16741 h 0.055 c -0.17212,0.005 -0.31221,0.27785 -0.31221,0.61604 0,0.33886 0.14273,0.61449 0.31686,0.61449 0.17304,-3e-5 0.31452,-0.27564 0.31453,-0.61449 0,-0.33818 -0.13886,-0.61136 -0.30986,-0.61604 l 0.0504,1e-5 v -3.16742 z m 2.064213,-1.22894 c -0.17416,0 -0.31686,0.27572 -0.31686,0.61682 0,0.33886 0.14164,0.61212 0.31686,0.61212 0.17302,0 0.31451,-0.27326 0.31451,-0.61212 0,-0.3411 -0.14149,-0.61682 -0.31451,-0.61682 z m 0,1.22894 h -0.0596 v 3.16662 l 0.0596,1e-5 h 0.0567 v -3.16663 z m 0,3.16663 c -0.17416,-1e-5 -0.31686,0.27571 -0.31686,0.61682 0,0.33885 0.14164,0.61446 0.31686,0.61449 0.17302,0 0.31452,-0.27563 0.31451,-0.61449 0,-0.34112 -0.14149,-0.61682 -0.31451,-0.61682 z m 6.19262,-4.20619 c -0.17415,0 -0.31686,0.27796 -0.31686,0.61682 0,0.3043 0.11262,0.55575 0.25939,0.60895 v 5.21904 h -1.03211 v 4.39873 h 1.03211 v 1.60845 l 0.11492,-0.10679 v -1.72555 h -1.0321 v -3.95082 l 1.0321,1e-5 v -5.443 c 0.14812,-0.0525 0.26017,-0.30564 0.26017,-0.60896 0,-0.33885 -0.14226,-0.61683 -0.31763,-0.61682 z m -8.268483,0.0322 c 0.004,-3.4e-4 0.006,0 0.0109,0 0.11031,0 0.19958,0.17613 0.19958,0.39524 0,0.21462 -0.0881,0.39053 -0.19958,0.39053 -0.11261,0 -0.20193,-0.17141 -0.20193,-0.39052 0,-0.21009 0.0861,-0.38458 0.19184,-0.39525 z m 2.064203,1e-5 c 0.004,-3.5e-4 0.006,-1e-5 0.0109,-1e-5 0.11019,0 0.19958,0.17613 0.19958,0.39524 0,0.21462 -0.0893,0.39053 -0.19958,0.39053 -0.11262,-1e-5 -0.20192,-0.1714 -0.20192,-0.39053 0,-0.21008 0.0861,-0.38457 0.19182,-0.39523 z m 12.18489,0.16658 v 6.65543 l 0.11651,-0.10849 v -6.32067 h 1.29303 l 7.8e-4,-0.22631 z m -5.98061,0.0252 c 0.11262,0 0.20269,0.17598 0.20269,0.39287 0,0.21911 -0.0901,0.39289 -0.20269,0.39289 -0.11152,0 -0.20191,-0.17378 -0.20193,-0.39289 0,-0.21689 0.0904,-0.39287 0.20193,-0.39287 z m -1.03133,0.51308 c -0.17414,3e-5 -0.31764,0.27496 -0.31764,0.61606 0,0.3005 0.11189,0.55328 0.25939,0.6066 v 3.20905 l -1.03211,3e-5 v 3.34891 c -0.14812,0.052 -0.26015,0.30322 -0.26015,0.6066 0,0.34113 0.14164,0.6192 0.31685,0.6192 0.1742,0 0.31608,-0.28034 0.31608,-0.61919 0,-0.30369 -0.11043,-0.55391 -0.25705,-0.60661 v -3.12499 h 1.03133 v -3.433 c 0.14611,-0.053 0.25783,-0.30576 0.25783,-0.6066 0,-0.3411 -0.14164,-0.61606 -0.31453,-0.61606 z m 0,0.22318 c 0.11019,0 0.19959,0.17375 0.19959,0.39288 0,0.21686 -0.0893,0.39366 -0.19959,0.39366 -0.11031,0 -0.2027,-0.1768 -0.20269,-0.39366 -10e-6,-0.21687 0.0912,-0.39288 0.20269,-0.39288 z m 2.68006,0.92639 c 0.11249,0 0.2027,0.17603 0.2027,0.39291 0,0.22135 -0.0889,0.3913 -0.2027,0.39131 -0.10922,0 -0.19958,-0.17446 -0.19958,-0.39132 0,-0.21461 0.0904,-0.39136 0.19958,-0.3929 z m 2.58297,0 c 0.11262,0 0.2027,0.17603 0.2027,0.39291 0,0.22135 -0.0891,0.39131 -0.2027,0.39131 -0.11152,0 -0.20191,-0.17446 -0.20191,-0.39131 0,-0.21462 0.0904,-0.39137 0.20191,-0.39291 z m -0.26015,1.67839 c 0.11371,3e-5 0.20268,0.1722 0.20268,0.39134 0,0.21912 -0.0901,0.39287 -0.20268,0.39287 -0.10922,0 -0.1996,-0.17375 -0.1996,-0.39287 0,-0.21462 0.0916,-0.39134 0.1996,-0.39134 z m -12.229953,0.8628 c 0.11031,0 0.1996,0.1761 0.19958,0.39523 0,0.21458 -0.0881,0.39131 -0.19958,0.39131 -0.11261,0 -0.20191,-0.17221 -0.20192,-0.39131 1e-5,-0.21688 0.0916,-0.39371 0.20192,-0.39523 z m 2.064223,0 c 0.11019,0 0.19959,0.1761 0.19959,0.39523 0,0.21458 -0.0893,0.39131 -0.19959,0.39131 -0.11262,0 -0.20191,-0.17221 -0.20191,-0.39131 -2e-5,-0.21689 0.0916,-0.39373 0.20191,-0.39523 z m 13.26514,0.048 c -0.17533,-2e-5 -0.31841,0.27953 -0.3184,0.6184 -1e-5,0.3031 0.1142,0.55321 0.26169,0.60501 l 3e-5,0.19647 0.11492,-0.10618 v -0.0912 c 0.13177,-0.0469 0.23514,-0.25105 0.25549,-0.50996 v -0.004 l 2e-5,-0.18072 c -3e-5,-2.8e-4 1e-5,-5.2e-4 0,-8e-4 -0.0222,-0.29881 -0.15414,-0.5288 -0.31376,-0.52879 z m 0,0.2255 c 0.11262,-1e-5 0.20347,0.17601 0.20347,0.3929 0,0.21684 -0.0909,0.3913 -0.20347,0.3913 -0.11152,0 -0.20192,-0.17446 -0.20192,-0.3913 0,-0.21913 0.0895,-0.3929 0.20192,-0.3929 z m -11.20093,1.23994 c -0.17304,0 -0.31453,0.27562 -0.31452,0.61448 -10e-6,0.30198 0.1108,0.55307 0.25626,0.6066 v 2.49795 h 1.03444 v 1.74597 l -1.0321,-1e-5 v 2.35022 c -0.14674,0.0525 -0.25861,0.30737 -0.25861,0.60895 0,0.34113 0.14164,0.61685 0.31453,0.61685 0.17415,0 0.31686,-0.27572 0.31686,-0.61683 0,-0.29954 -0.11165,-0.5518 -0.25783,-0.60741 v -2.1302 h 1.03208 v -2.19384 h -1.03443 v -2.27086 c 0.14735,-0.0521 0.26018,-0.30426 0.26018,-0.60741 0,-0.33884 -0.14273,-0.61446 -0.31686,-0.61446 z m 0,0.22158 c 0.1103,2e-5 0.20192,0.17602 0.20192,0.3929 0,0.21911 -0.0904,0.39522 -0.20192,0.39522 -0.11031,1e-5 -0.19958,-0.17611 -0.19958,-0.39522 0,-0.21688 0.0881,-0.3929 0.19958,-0.3929 z m 6.0373,2.40838 c 0.1125,0 0.20348,0.17602 0.20348,0.39288 0,0.22136 -0.0897,0.39132 -0.20348,0.39132 -0.11152,0 -0.20192,-0.17448 -0.20192,-0.39132 0,-0.21686 0.0904,-0.39288 0.20192,-0.39288 z m 1.03288,0.0833 c 0.11152,0 0.2027,0.17454 0.2027,0.39367 0,0.22137 -0.0901,0.39052 -0.2027,0.39052 -0.11031,0 -0.19959,-0.17364 -0.19959,-0.39052 0,-0.21913 0.0893,-0.39367 0.19959,-0.39367 z m -5.00519,0.077 c 0.11019,-1e-5 0.19958,0.17374 0.19958,0.39287 0,0.21688 -0.0893,0.39289 -0.19958,0.39289 -0.11031,0 -0.20192,-0.17601 -0.20192,-0.39289 0,-0.21913 0.0927,-0.39287 0.20192,-0.39287 z m -7.088053,1.44502 v 0.27266 c 0.0378,0.0713 0.0614,0.17133 0.0614,0.28366 0,0.11237 -0.0236,0.21319 -0.0614,0.28446 v 0.27028 c 0.10472,-0.10047 0.17706,-0.31212 0.17706,-0.55474 0,-0.24424 -0.0724,-0.45571 -0.17706,-0.55632 z m 3.990183,0.16343 c 0.11031,0 0.20191,0.17375 0.20191,0.39289 0,0.21911 -0.0916,0.39288 -0.20191,0.39288 -0.11031,-1e-5 -0.20037,-0.17377 -0.20037,-0.39288 0,-0.21914 0.0901,-0.39289 0.20037,-0.39289 z m 4.13152,1.36411 c -0.17414,0 -0.31764,0.2803 -0.31764,0.61916 0,0.3005 0.11189,0.5533 0.25939,0.60661 v 0.47853 l 0.11493,-0.10606 v -0.37245 c 0.14611,-0.053 0.25784,-0.30576 0.25784,-0.6066 0,-0.34111 -0.14164,-0.61917 -0.31453,-0.61917 z m -0.0109,0.22628 c 0.004,-3.4e-4 0.007,0 0.0109,-2e-5 0.11031,2e-5 0.19959,0.17379 0.19959,0.3929 0,0.21913 -0.0893,0.39288 -0.19959,0.39288 -0.11031,0 -0.20269,-0.17375 -0.2027,-0.39288 10e-6,-0.21226 0.0852,-0.38249 0.19183,-0.39288 z m -7.533053,0.80855 c -0.17415,0 -0.31686,0.28032 -0.31686,0.61919 0,0.3411 0.14164,0.61447 0.31686,0.61445 0.15444,2e-5 0.28403,-0.21477 0.31141,-0.5013 h 1.960933 c 0.0272,0.28653 0.15598,0.5013 0.31143,0.50132 0.17302,-2e-5 0.31529,-0.27338 0.31529,-0.61447 0,-0.34112 -0.14226,-0.61919 -0.31529,-0.61919 -0.15436,0 -0.28394,0.22007 -0.31143,0.50603 h -1.960913 c -0.0272,-0.28743 -0.15595,-0.50603 -0.31143,-0.50603 z m -0.0109,0.2263 c 0.004,-3.4e-4 0.006,0 0.0109,0 0.11153,0 0.20191,0.17602 0.20191,0.39289 0,0.21685 -0.0904,0.39051 -0.20191,0.39051 -0.11261,0 -0.20192,-0.16914 -0.20192,-0.39051 0,-0.2101 0.0852,-0.38234 0.19182,-0.39289 z m 2.583763,0 c 0.004,-3.4e-4 0.006,0 0.0109,0 0.10921,0 0.20034,0.17602 0.20034,0.39289 0,0.21685 -0.0914,0.39051 -0.20034,0.39051 -0.11262,0 -0.20194,-0.16914 -0.20194,-0.39051 0,-0.2101 0.0843,-0.38234 0.19183,-0.39289 z m -1.281393,0.6844 c -0.17537,0 -0.31686,0.27326 -0.31686,0.6121 0,0.30056 0.11104,0.55139 0.2586,0.60427 v 3.81567 c -0.1475,0.053 -0.2586,0.30369 -0.2586,0.60425 0,0.0514 0.004,0.10156 0.01,0.14921 l 0.10727,-0.099 c -0.001,-0.0159 -0.001,-0.0316 -0.001,-0.048 0,-0.21686 0.0893,-0.39365 0.2019,-0.39365 0.0566,-2e-5 0.10788,0.047 0.14442,0.12174 l 0.108,-0.0999 c -0.0468,-0.12076 -0.11638,-0.20666 -0.19571,-0.23493 v -3.81568 c 0.14705,-0.0524 0.25862,-0.30322 0.25862,-0.60425 0,-0.33886 -0.14118,-0.61212 -0.3153,-0.61212 z m -0.0109,0.22158 c 0.004,-3.1e-4 0.007,0 0.0109,0 0.11018,0 0.20036,0.17593 0.20036,0.39054 0,0.21912 -0.0878,0.39288 -0.20036,0.39288 -0.11262,0 -0.20194,-0.17602 -0.20194,-0.39288 0,-0.2079 0.0835,-0.37999 0.19105,-0.39054 z m 3.153773,0.10132 c 0.004,-3.4e-4 0.006,1e-5 0.0109,1e-5 0.11031,0 0.20194,0.17602 0.20194,0.39288 -3e-5,0.21913 -0.0904,0.39524 -0.20194,0.39524 -0.11031,-10e-6 -0.19958,-0.17611 -0.19958,-0.39524 0,-0.21009 0.083,-0.38236 0.1895,-0.39289 z m 0.98629,0.3591 v 0.99084 l 0.11493,-0.10691 v -0.65847 h 0.71058 l 0.24309,-0.22552 z" /><path
       id="path879"
       style="fill:url(#linearGradient35);fill-opacity:1;stroke:url(#linearGradient39);stroke-width:0.816473;stroke-dasharray:none;stroke-opacity:1"
       inkscape:label="big arrow"
       d="m 81.529757,100.49065 -16.163612,22.50564 7.533242,-0.047 v 17.38275 l 17.02235,-10.70984 0.30059,0.0853 v -6.86588 l 7.91916,-0.0493 z m 8.69257,32.05933 -17.32294,10.89879 v 64.62817 l 17.32294,-15.91725 z"
       sodipodi:nodetypes="cccccccccccccc" /></g></svg>
